PathFileType	4	(X/Y/Z)	output.trc
DataRate	CameraRate	NumFrames	NumMarkers	Units	OrigDataRate	OrigDataStartFrame	OrigNumFrames
250.00	250.00	9	36	m	250.00	567	2266
Frame#	Time	LPSIS_X	LPSIS_Y	LPSIS_Z	LASIS_X	LASIS_Y	LASIS_Z	LTH1_X	LTH1_Y	LTH1_Z	LTH2_X	LTH2_Y	LTH2_Z	LTH3_X	LTH3_Y	LTH3_Z	LTH4_X	LTH4_Y	LTH4_Z	LLFE_X	LLFE_Y	LLFE_Z	LMFE_X	LMFE_Y	LMFE_Z	LSH1_X	LSH1_Y	LSH1_Z	LSH2_X	LSH2_Y	LSH2_Z	LSH3_X	LSH3_Y	LSH3_Z	LSH4_X	LSH4_Y	LSH4_Z	LLMAL_X	LLMAL_Y	LLMAL_Z	LMMAL_X	LMMAL_Y	LMMAL_Z	LCAL_X	LCAL_Y	LCAL_Z	LMTP5_X	LMTP5_Y	LMTP5_Z	LTOE_X	LTOE_Y	LTOE_Z	LMTP1_X	LMTP1_Y	LMTP1_Z	RPSIS_X	RPSIS_Y	RPSIS_Z	RASIS_X	RASIS_Y	RASIS_Z	RTH1_X	RTH1_Y	RTH1_Z	RTH2_X	RTH2_Y	RTH2_Z	RTH3_X	RTH3_Y	RTH3_Z	RTH4_X	RTH4_Y	RTH4_Z	RLFE_X	RLFE_Y	RLFE_Z	RMFE_X	RMFE_Y	RMFE_Z	RSH1_X	RSH1_Y	RSH1_Z	RSH2_X	RSH2_Y	RSH2_Z	RSH3_X	RSH3_Y	RSH3_Z	RSH4_X	RSH4_Y	RSH4_Z	RLMAL_X	RLMAL_Y	RLMAL_Z	RMMAL_X	RMMAL_Y	RMMAL_Z	RCAL_X	RCAL_Y	RCAL_Z	RMTP1_X	RMTP1_Y	RMTP1_Z	RTOE_X	RTOE_Y	RTOE_Z	RMTP5_X	RMTP5_Y	RMTP5_Z

567	2.26400	nan	nan	nan	nan	nan	nan	nan	nan	nan	-1136.29077	347.53247	567.44159	nan	nan	nan	nan	nan	nan	nan	nan	nan	-1185.56396	388.01523	534.55798	nan	nan	nan	nan	nan	nan	nan	nan	nan	nan	nan	nan	nan	nan	nan	nan	nan	nan	nan	nan	nan	nan	nan	nan	nan	nan	nan	nan	nan	nan	-1421.91797	296.51559	1039.08997	nan	nan	nan	-1299.59729	171.34991	843.72040	nan	nan	nan	nan	nan	nan	-1228.74719	215.78154	767.98578	-1313.38464	235.60519	508.64035	nan	nan	nan	nan	nan	nan	nan	nan	nan	nan	nan	nan	nan	nan	nan	nan	nan	nan	nan	nan	nan	nan	nan	nan	nan	nan	nan	-1234.95715	314.03989	57.88732	-1284.70227	255.09383	46.36219
568	2.26800	nan	nan	nan	nan	nan	nan	nan	nan	nan	-1134.09790	347.30515	567.88391	nan	nan	nan	nan	nan	nan	nan	nan	nan	-1177.34546	387.98535	536.39569	nan	nan	nan	nan	nan	nan	nan	nan	nan	nan	nan	nan	nan	nan	nan	nan	nan	nan	nan	nan	nan	nan	nan	nan	-1367.51672	447.30652	86.30843	nan	nan	nan	-1417.03406	296.63538	1039.68311	nan	nan	nan	-1294.80737	172.79053	843.34198	nan	nan	nan	nan	nan	nan	-1225.91614	214.95937	767.90814	-1312.65942	235.38829	509.05624	nan	nan	nan	nan	nan	nan	nan	nan	nan	nan	nan	nan	nan	nan	nan	nan	nan	nan	nan	nan	nan	nan	nan	nan	nan	nan	nan	-1234.98303	314.03821	57.83571	-1284.68713	255.06987	46.27076
569	2.27200	nan	nan	nan	nan	nan	nan	nan	nan	nan	-1131.92566	347.01593	568.28577	nan	nan	nan	nan	nan	nan	nan	nan	nan	-1169.13928	387.78592	538.14935	nan	nan	nan	nan	nan	nan	nan	nan	nan	nan	nan	nan	nan	nan	nan	nan	nan	nan	nan	nan	nan	nan	nan	nan	-1349.02954	447.27521	85.41565	nan	nan	nan	-1412.12927	296.83707	1040.17725	nan	nan	nan	-1291.64221	172.49066	843.79523	nan	nan	nan	nan	nan	nan	-1223.27551	214.10239	767.79596	-1311.79480	235.15993	509.41711	nan	nan	nan	nan	nan	nan	nan	nan	nan	nan	nan	nan	-1346.19324	480.15100	981.01868	nan	nan	nan	nan	nan	nan	nan	nan	nan	nan	nan	nan	-1234.99475	314.07593	57.76176	-1284.65869	255.04810	46.20861
570	2.27600	nan	nan	nan	nan	nan	nan	nan	nan	nan	-1129.85767	346.72314	568.71460	nan	nan	nan	nan	nan	nan	nan	nan	nan	-1161.13110	387.73212	539.78894	nan	nan	nan	nan	nan	nan	nan	nan	nan	nan	nan	nan	nan	nan	nan	nan	nan	nan	nan	nan	nan	nan	nan	nan	-1330.87329	447.60571	83.70419	nan	nan	nan	-1407.21460	297.11563	1040.60571	nan	nan	nan	-1288.42444	172.25522	844.16882	-1288.51099	178.31416	765.17834	nan	nan	nan	-1220.34521	213.46118	767.62640	-1311.08911	234.88554	509.86008	nan	nan	nan	nan	nan	nan	nan	nan	nan	nan	nan	nan	-1341.25891	479.84195	981.78986	nan	nan	nan	nan	nan	nan	nan	nan	nan	nan	nan	nan	-1234.99146	314.07791	57.72034	-1284.76758	254.92036	46.32906
571	2.28000	nan	nan	nan	nan	nan	nan	nan	nan	nan	-1127.64539	346.38571	569.09985	nan	nan	nan	nan	nan	nan	nan	nan	nan	-1153.26257	387.62833	541.41467	nan	nan	nan	nan	nan	nan	nan	nan	nan	nan	nan	nan	nan	nan	nan	nan	nan	nan	nan	nan	nan	nan	nan	nan	-1313.08728	447.71362	82.64279	nan	nan	nan	-1402.30579	297.37683	1040.95862	nan	nan	nan	-1285.24280	172.06639	844.52246	-1285.87622	178.08769	765.50140	nan	nan	nan	-1216.84705	213.56691	766.99341	-1310.16931	234.69107	510.20166	nan	nan	nan	nan	nan	nan	nan	nan	nan	nan	nan	nan	-1336.34607	479.58401	982.49854	nan	nan	nan	nan	nan	nan	nan	nan	nan	nan	nan	nan	-1234.93896	314.09967	57.62529	-1284.59521	255.00644	46.12083
572	2.28400	nan	nan	nan	nan	nan	nan	nan	nan	nan	-1125.39563	346.08337	569.50739	nan	nan	nan	nan	nan	nan	nan	nan	nan	-1145.22766	387.55145	542.72253	nan	nan	nan	nan	nan	nan	nan	nan	nan	nan	nan	nan	nan	nan	nan	nan	nan	nan	nan	nan	nan	nan	nan	nan	-1294.39099	447.53201	81.74835	nan	nan	nan	-1397.44702	297.61423	1041.29724	nan	nan	nan	-1282.03796	171.85248	844.82037	-1283.13147	177.91125	765.76624	nan	nan	nan	-1214.44617	212.31874	767.03357	-1309.37415	234.37753	510.59042	nan	nan	nan	nan	nan	nan	nan	nan	nan	nan	nan	nan	-1331.46045	479.37866	983.18091	nan	nan	nan	nan	nan	nan	nan	nan	nan	nan	nan	nan	-1234.90491	314.11758	57.55763	-1284.53589	254.99332	46.07858
573	2.28800	nan	nan	nan	-1235.84753	868.93671	624.79388	nan	nan	nan	-1123.08142	345.78873	569.83850	nan	nan	nan	nan	nan	nan	nan	nan	nan	-1137.71790	387.29279	544.35535	nan	nan	nan	-1213.12402	505.60861	397.99069	-1287.42126	501.24527	384.39447	nan	nan	nan	nan	nan	nan	nan	nan	nan	nan	nan	nan	-1334.07935	497.07404	104.95853	-1276.27954	447.82822	80.37883	-1305.66431	394.32080	82.43042	-1392.61047	297.83603	1041.55127	nan	nan	nan	-1278.81702	171.67043	845.11115	-1280.46582	177.65025	766.11182	nan	nan	nan	-1211.65149	211.63757	766.83765	-1308.40442	234.17441	510.95764	nan	nan	nan	nan	nan	nan	nan	nan	nan	nan	nan	nan	-1326.56238	479.09897	983.78107	nan	nan	nan	-1306.70862	527.71667	639.10913	nan	nan	nan	nan	nan	nan	-1234.90332	314.14691	57.50021	-1284.55066	254.97141	46.04322
574	2.29200	nan	nan	nan	nan	nan	nan	nan	nan	nan	-1120.77124	345.52750	570.16907	nan	nan	nan	nan	nan	nan	nan	nan	nan	-1129.95679	387.21451	545.44025	nan	nan	nan	-1203.61218	505.23877	396.82166	-1276.33081	501.32861	382.18762	nan	nan	nan	nan	nan	nan	-1399.48413	390.91040	213.98727	nan	nan	nan	-1316.45374	497.49658	101.93669	-1257.91687	447.91522	79.20531	-1287.29919	394.62735	80.21056	-1387.74548	298.09430	1041.76526	nan	nan	nan	-1275.52637	171.55939	845.31030	-1277.78589	177.30826	766.41467	nan	nan	nan	-1208.73853	211.07854	766.55408	-1307.56226	233.92744	511.31522	nan	nan	nan	nan	nan	nan	nan	nan	nan	nan	nan	nan	-1321.65405	478.81116	984.25269	nan	nan	nan	nan	nan	nan	nan	nan	nan	-1259.32129	363.32782	47.30468	-1234.91968	314.36755	57.16763	-1284.69897	254.74516	46.19549
575	2.29600	nan	nan	nan	-1220.89001	869.62244	623.72253	nan	nan	nan	-1118.40222	345.22769	570.46191	nan	nan	nan	nan	nan	nan	nan	nan	nan	-1122.75549	386.76212	546.80371	nan	nan	nan	-1191.58276	505.14468	396.88373	-1265.18298	501.36536	379.95691	nan	nan	nan	nan	nan	nan	nan	nan	nan	nan	nan	nan	-1298.39380	497.43793	99.47903	-1239.07642	448.15488	78.21767	-1269.00049	394.50659	78.45657	-1382.93030	298.31836	1041.90820	nan	nan	nan	-1272.23987	171.45596	845.51312	-1274.95935	177.13435	766.55499	nan	nan	nan	-1205.94385	210.42178	766.30585	-1306.48779	233.70891	511.62405	nan	nan	nan	nan	nan	nan	nan	nan	nan	nan	nan	nan	-1316.89136	478.41632	984.75446	nan	nan	nan	nan	nan	nan	nan	nan	nan	-1257.11755	363.82016	48.00570	-1234.84692	314.12015	57.37781	-1284.68188	254.68452	46.21225
